<svg id="visual" viewBox="0 0 900 600" width="900" height="600" xmlns="http://www.w3.org/2000/svg" xmlns:xlink="http://www.w3.org/1999/xlink" version="1.1"><path d="M0 183L21.5 188.2C43 193.3 86 203.7 128.8 198.2C171.7 192.7 214.3 171.3 257.2 163.2C300 155 343 160 385.8 162.3C428.7 164.7 471.3 164.3 514.2 163C557 161.7 600 159.3 642.8 161.8C685.7 164.3 728.3 171.7 771.2 171C814 170.3 857 161.7 878.5 157.3L900 153L900 0L878.5 0C857 0 814 0 771.2 0C728.3 0 685.7 0 642.8 0C600 0 557 0 514.2 0C471.3 0 428.7 0 385.8 0C343 0 300 0 257.2 0C214.3 0 171.7 0 128.8 0C86 0 43 0 21.5 0L0 0Z" fill="#e16863"></path><path d="M0 119L21.5 124C43 129 86 139 128.8 146C171.7 153 214.3 157 257.2 165.3C300 173.7 343 186.3 385.8 182.8C428.7 179.3 471.3 159.7 514.2 147.5C557 135.3 600 130.7 642.8 136.2C685.7 141.7 728.3 157.3 771.2 162C814 166.7 857 160.3 878.5 157.2L900 154L900 0L878.5 0C857 0 814 0 771.2 0C728.3 0 685.7 0 642.8 0C600 0 557 0 514.2 0C471.3 0 428.7 0 385.8 0C343 0 300 0 257.2 0C214.3 0 171.7 0 128.8 0C86 0 43 0 21.5 0L0 0Z" fill="#d24064"></path><path d="M0 130L21.5 126.3C43 122.7 86 115.3 128.8 117.5C171.7 119.7 214.3 131.3 257.2 129.2C300 127 343 111 385.8 103.5C428.7 96 471.3 97 514.2 96.3C557 95.7 600 93.3 642.8 91.5C685.7 89.7 728.3 88.3 771.2 96.7C814 105 857 123 878.5 132L900 141L900 0L878.5 0C857 0 814 0 771.2 0C728.3 0 685.7 0 642.8 0C600 0 557 0 514.2 0C471.3 0 428.7 0 385.8 0C343 0 300 0 257.2 0C214.3 0 171.7 0 128.8 0C86 0 43 0 21.5 0L0 0Z" fill="#c62368"></path><path d="M0 104L21.5 105C43 106 86 108 128.8 103.8C171.7 99.7 214.3 89.3 257.2 83.7C300 78 343 77 385.8 74.5C428.7 72 471.3 68 514.2 73C557 78 600 92 642.8 98C685.7 104 728.3 102 771.2 103.7C814 105.3 857 110.7 878.5 113.3L900 116L900 0L878.5 0C857 0 814 0 771.2 0C728.3 0 685.7 0 642.8 0C600 0 557 0 514.2 0C471.3 0 428.7 0 385.8 0C343 0 300 0 257.2 0C214.3 0 171.7 0 128.8 0C86 0 43 0 21.5 0L0 0Z" fill="#d24064"></path><path d="M0 50L21.5 52.8C43 55.7 86 61.3 128.8 63C171.7 64.7 214.3 62.3 257.2 60C300 57.7 343 55.3 385.8 50.3C428.7 45.3 471.3 37.7 514.2 38.7C557 39.7 600 49.3 642.8 52.3C685.7 55.3 728.3 51.7 771.2 52.7C814 53.7 857 59.3 878.5 62.2L900 65L900 0L878.5 0C857 0 814 0 771.2 0C728.3 0 685.7 0 642.8 0C600 0 557 0 514.2 0C471.3 0 428.7 0 385.8 0C343 0 300 0 257.2 0C214.3 0 171.7 0 128.8 0C86 0 43 0 21.5 0L0 0Z" fill="#e16863"></path></svg>